<svg width="34" height="34" viewBox="0 0 34 34" fill="none" xmlns="http://www.w3.org/2000/svg">
<g clipPath="url(#clip0_26_9236)">
<path d="M30.8719 26.4968C30.3577 27.6847 29.7491 28.7781 29.0439 29.7834C28.0827 31.1538 27.2957 32.1025 26.6892 32.6292C25.7489 33.4939 24.7416 33.9367 23.6628 33.9619C22.8884 33.9619 21.9545 33.7415 20.8674 33.2945C19.7767 32.8496 18.7743 32.6292 17.8578 32.6292C16.8966 32.6292 15.8657 32.8496 14.7631 33.2945C13.6588 33.7415 12.7691 33.9745 12.0889 33.9976C11.0545 34.0417 10.0234 33.5862 8.99419 32.6292C8.3373 32.0563 7.51566 31.0741 6.53137 29.6826C5.4753 28.1968 4.60707 26.4737 3.92688 24.5093C3.19843 22.3876 2.83325 20.3329 2.83325 18.3438C2.83325 16.0652 3.32561 14.1 4.31178 12.4531C5.08683 11.1303 6.11792 10.0869 7.40841 9.32083C8.6989 8.5548 10.0933 8.16444 11.5949 8.13947C12.4165 8.13947 13.494 8.39362 14.833 8.89311C16.1682 9.39428 17.0255 9.64844 17.4014 9.64844C17.6824 9.64844 18.6348 9.35126 20.2493 8.7588C21.7761 8.20936 23.0647 7.98186 24.1203 8.07147C26.9809 8.30233 29.1299 9.42996 30.5592 11.4615C28.0008 13.0116 26.7353 15.1827 26.7605 17.9679C26.7836 20.1373 27.5706 21.9426 29.1173 23.376C29.8183 24.0413 30.6011 24.5555 31.4721 24.9207C31.2832 25.4685 31.0838 25.9931 30.8719 26.4968ZM24.3113 0.680682C24.3113 2.38107 23.6901 3.96872 22.4519 5.43823C20.9576 7.18519 19.1502 8.19466 17.1902 8.03537C17.1653 7.83138 17.1508 7.61668 17.1508 7.39107C17.1508 5.7587 17.8614 4.01174 19.1233 2.58336C19.7534 1.86015 20.5547 1.25881 21.5264 0.77911C22.496 0.306566 23.4131 0.0452394 24.2757 0.000488281C24.3008 0.227804 24.3113 0.455133 24.3113 0.68066V0.680682Z" fill="#F3F3F3"/>
</g>
<defs>
<clipPath id="clip0_26_9236">
<rect width="34" height="34" fill="white"/>
</clipPath>
</defs>
</svg>
