<svg width="34" height="34" viewBox="0 0 34 34" fill="none" xmlns="http://www.w3.org/2000/svg">
<g clipPath="url(#clip0_26_9242)">
<path d="M34 17C34 7.61124 26.3888 0 17 0C7.61124 0 0 7.61124 0 17C0 24.9723 5.48896 31.6622 12.8935 33.4995V22.1952H9.38808V17H12.8935V14.7614C12.8935 8.97532 15.5122 6.2934 21.1929 6.2934C22.27 6.2934 24.1284 6.50488 24.8887 6.71568V11.4247C24.4875 11.3825 23.7905 11.3614 22.9248 11.3614C20.1375 11.3614 19.0604 12.4175 19.0604 15.1626V17H24.6133L23.6592 22.1952H19.0604V33.8756C27.4781 32.859 34.0007 25.6918 34.0007 17H34Z" fill="#F3F3F3"/>
</g>
<defs>
<clipPath id="clip0_26_9242">
<rect width="34" height="34" fill="white"/>
</clipPath>
</defs>
</svg>
