<svg width="34" height="34" viewBox="0 0 34 34" fill="none" xmlns="http://www.w3.org/2000/svg">
<g clip-path="url(#clip0_26_9238)">
<path d="M16.9998 13.9092V20.4928H26.1488C25.7471 22.6101 24.5415 24.4029 22.7333 25.6083L28.2506 29.8893C31.4651 26.9221 33.3197 22.5639 33.3197 17.3866C33.3197 16.1812 33.2115 15.022 33.0105 13.9094L16.9998 13.9092Z" fill="#F3F3F3"/>
<path d="M7.47245 20.2358L6.2281 21.1884L1.82349 24.6192C4.62075 30.1674 10.354 34.0001 16.9994 34.0001C21.5892 34.0001 25.4374 32.4856 28.2502 29.8893L22.7329 25.6083C21.2184 26.6283 19.2865 27.2466 16.9994 27.2466C12.5794 27.2466 8.82405 24.2639 7.4794 20.2457L7.47245 20.2358Z" fill="#F3F3F3"/>
<path d="M1.8235 9.38086C0.664476 11.668 0 14.249 0 16.9998C0 19.7507 0.664476 22.3317 1.8235 24.6188C1.8235 24.6342 7.47996 20.2297 7.47996 20.2297C7.13997 19.2098 6.939 18.128 6.939 16.9997C6.939 15.8713 7.13997 14.7896 7.47996 13.7696L1.8235 9.38086Z" fill="#F3F3F3"/>
<path d="M16.9997 6.76909C19.5034 6.76909 21.7288 7.63452 23.5061 9.30363L28.3742 4.43551C25.4224 1.68465 21.5898 0 16.9997 0C10.3543 0 4.62075 3.81727 1.82349 9.38092L7.47977 13.77C8.82424 9.75179 12.5797 6.76909 16.9997 6.76909Z" fill="#F3F3F3"/>
</g>
<defs>
<clipPath id="clip0_26_9238">
<rect width="34" height="34" fill="white"/>
</clipPath>
</defs>
</svg>
