<svg width="34" height="34" viewBox="0 0 34 34" fill="none" xmlns="http://www.w3.org/2000/svg">
<path d="M31.5876 25.0461C26.3225 22.4966 25.4834 18.5603 25.446 18.2683C25.4008 17.9146 25.3496 17.6366 25.7396 17.2768C26.1158 16.9292 27.7845 15.8961 28.2475 15.5728C29.0128 15.0375 29.3499 14.5031 29.1014 13.8462C28.9277 13.3918 28.5047 13.2206 28.059 13.2206C27.9185 13.221 27.7784 13.2367 27.6412 13.2675C26.8003 13.45 25.9837 13.8714 25.5112 13.9852C25.4544 13.9999 25.3961 14.0078 25.3374 14.0087C25.0855 14.0087 24.9899 13.8966 25.0143 13.5934C25.0733 12.674 25.1984 10.8796 25.0534 9.20343C24.8544 6.89724 24.1108 5.75457 23.2291 4.74399C22.8026 4.2539 20.822 2.14844 16.9997 2.14844C13.1775 2.14844 11.1995 4.2539 10.7756 4.7379C9.89127 5.74849 9.14854 6.89116 8.95135 9.19735C8.80628 10.8735 8.93658 12.6671 8.99044 13.5873C9.00782 13.8758 8.91921 14.0026 8.66729 14.0026C8.60866 14.0016 8.55035 13.9937 8.49355 13.9792C8.02185 13.8653 7.20529 13.4439 6.3644 13.2614C6.22723 13.2307 6.08713 13.2149 5.94656 13.2145C5.49918 13.2145 5.07787 13.3883 4.90413 13.8401C4.65569 14.4971 4.991 15.0315 5.75892 15.5667C6.22193 15.89 7.89068 16.9223 8.26682 17.2707C8.656 17.6305 8.60561 17.9086 8.56044 18.2622C8.52309 18.5585 7.68307 22.4949 2.41881 25.04C2.11043 25.1895 1.58574 25.5058 2.51089 26.0167C3.96334 26.8196 4.93019 26.7336 5.68161 27.2176C6.31922 27.6286 5.94221 28.5149 6.40609 28.8347C6.97595 29.2283 8.66034 28.8069 10.8364 29.5255C12.6607 30.1268 13.7691 31.8256 17.0041 31.8256C20.2391 31.8256 21.3797 30.119 23.1718 29.5255C25.3435 28.8069 27.0314 29.2283 27.6021 28.8347C28.0651 28.5149 27.689 27.6286 28.3266 27.2176C29.078 26.7336 30.044 26.8196 31.4973 26.0167C32.4207 25.5118 31.896 25.1955 31.5876 25.0461Z" fill="#F3F3F3"/>
</svg>
