<svg width="34" height="34" viewBox="0 0 34 34" fill="none" xmlns="http://www.w3.org/2000/svg">
<g clip-path="url(#clip0_26_9237)">
<path d="M33.3228 8.76295C33.1306 8.03962 32.7517 7.37946 32.2242 6.84854C31.6967 6.31763 31.039 5.93458 30.3169 5.73772C27.6587 5.02295 17.0337 5.02295 17.0337 5.02295C17.0337 5.02295 6.40869 5.02295 3.75051 5.73772C3.02843 5.93458 2.37071 6.31763 1.84318 6.84854C1.31566 7.37946 0.936824 8.03962 0.744601 8.76295C0.0336915 11.4327 0.0336914 17.0002 0.0336914 17.0002C0.0336914 17.0002 0.0336915 22.5677 0.744601 25.2375C0.936824 25.9608 1.31566 26.621 1.84318 27.1519C2.37071 27.6828 3.02843 28.0659 3.75051 28.2627C6.40869 28.9775 17.0337 28.9775 17.0337 28.9775C17.0337 28.9775 27.6587 28.9775 30.3169 28.2627C31.039 28.0659 31.6967 27.6828 32.2242 27.1519C32.7517 26.621 33.1306 25.9608 33.3228 25.2375C34.0337 22.5677 34.0337 17.0002 34.0337 17.0002C34.0337 17.0002 34.0337 11.4327 33.3228 8.76295Z" fill="#F3F3F3"/>
<path d="M13.5564 22.0555V11.9443L22.4428 16.9999L13.5564 22.0555Z" fill="#0E181C"/>
</g>
<defs>
<clipPath id="clip0_26_9237">
<rect width="34" height="34" fill="white"/>
</clipPath>
</defs>
</svg>
