<svg width="51" height="50" viewBox="0 0 51 50" fill="none" xmlns="http://www.w3.org/2000/svg">
<path fillRule="evenodd" clipRule="evenodd" d="M25.4365 0.600098C11.675 0.600098 0.512939 11.7622 0.512939 25.5236C0.512939 36.5328 7.69948 45.86 17.4854 49.2239C18.7087 49.3769 19.1674 48.6123 19.1674 48.0007C19.1674 47.3891 19.1674 45.86 19.1674 43.7194C12.2866 45.2484 10.7576 40.3554 10.7576 40.3554C9.68725 37.4503 8.00529 36.6857 8.00529 36.6857C5.71172 35.1567 8.1582 35.1567 8.1582 35.1567C10.6047 35.3096 11.9808 37.7561 11.9808 37.7561C14.2744 41.5787 17.7912 40.5084 19.1674 39.8967C19.3203 38.2148 20.0848 37.1444 20.6964 36.5328C15.1918 35.9212 9.38144 33.7805 9.38144 24.1475C9.38144 21.3952 10.2989 19.2545 11.9808 17.4197C11.8279 16.961 10.9105 14.3616 12.2866 10.9977C12.2866 10.9977 14.4273 10.386 19.1674 13.597C21.1551 12.9854 23.2958 12.8325 25.4365 12.8325C27.5772 12.8325 29.7178 13.1383 31.7056 13.597C36.4457 10.386 38.5863 10.9977 38.5863 10.9977C39.9625 14.3616 39.045 16.961 38.8921 17.5726C40.4212 19.2545 41.4915 21.5481 41.4915 24.3004C41.4915 33.9334 35.6811 35.9212 30.1765 36.5328C31.094 37.2973 31.8585 38.8264 31.8585 41.12C31.8585 44.4839 31.8585 47.0833 31.8585 48.0007C31.8585 48.6123 32.3172 49.3769 33.5405 49.2239C43.4793 45.86 50.5129 36.5328 50.5129 25.5236C50.36 11.7622 39.198 0.600098 25.4365 0.600098Z" fill="#231E1B"/>
</svg>
