<svg width="50" height="50" viewBox="0 0 50 50" fill="none" xmlns="http://www.w3.org/2000/svg">
<path fillRule="evenodd" clipRule="evenodd" d="M49.0584 25.5682C49.0584 23.7955 48.8993 22.091 48.6039 20.4546H25.0583V30.1251H38.5129C37.9334 33.2501 36.172 35.8978 33.5243 37.6705V43.9433H41.6038C46.3311 39.591 49.0584 33.1819 49.0584 25.5682Z" fill="#4285F4"/>
<path fillRule="evenodd" clipRule="evenodd" d="M25.0573 50C31.8073 50 37.4664 47.7614 41.6028 43.9432L33.5232 37.6705C31.2845 39.1705 28.4209 40.0568 25.0573 40.0568C18.5459 40.0568 13.0345 35.6591 11.0686 29.75H2.71631V36.2273C6.82995 44.3978 15.2845 50 25.0573 50Z" fill="#34A853"/>
<path fillRule="evenodd" clipRule="evenodd" d="M11.0697 29.7498C10.5697 28.2498 10.2856 26.6475 10.2856 24.9998C10.2856 23.352 10.5697 21.7498 11.0697 20.2497V13.7725H2.71745C1.02426 17.1475 0.0583496 20.9657 0.0583496 24.9998C0.0583496 29.0339 1.02426 32.8521 2.71745 36.2271L11.0697 29.7498Z" fill="#FBBC05"/>
<path fillRule="evenodd" clipRule="evenodd" d="M25.0573 9.9432C28.7277 9.9432 32.0232 11.2046 34.6141 13.6818L41.7846 6.51138C37.455 2.47728 31.7959 0 25.0573 0C15.2845 0 6.82995 5.60229 2.71631 13.7728L11.0686 20.25C13.0345 14.3409 18.5459 9.9432 25.0573 9.9432Z" fill="#EA4335"/>
</svg>
