<svg width="53" height="52" viewBox="0 0 53 52" fill="none" xmlns="http://www.w3.org/2000/svg">
<path d="M26.5898 4.75C33.4648 4.75 34.4023 4.75 37.2148 4.75C39.7148 4.75 40.9648 5.375 41.9023 5.6875C43.1523 6.3125 44.0898 6.625 45.0273 7.5625C45.9648 8.5 46.5898 9.4375 46.9023 10.6875C47.2148 11.625 47.5273 12.875 47.8398 15.375C47.8398 18.1875 47.8398 18.8125 47.8398 26C47.8398 33.1875 47.8398 33.8125 47.8398 36.625C47.8398 39.125 47.2148 40.375 46.9023 41.3125C46.2773 42.5625 45.9648 43.5 45.0273 44.4375C44.0898 45.375 43.1523 46 41.9023 46.3125C40.9648 46.625 39.7148 46.9375 37.2148 47.25C34.4023 47.25 33.7773 47.25 26.5898 47.25C19.4023 47.25 18.7773 47.25 15.9648 47.25C13.4648 47.25 12.2148 46.625 11.2773 46.3125C10.0273 45.6875 9.08985 45.375 8.15235 44.4375C7.21485 43.5 6.58984 42.5625 6.27734 41.3125C5.96484 40.375 5.65234 39.125 5.33984 36.625C5.33984 33.8125 5.33984 33.1875 5.33984 26C5.33984 18.8125 5.33984 18.1875 5.33984 15.375C5.33984 12.875 5.96484 11.625 6.27734 10.6875C6.90234 9.4375 7.21485 8.5 8.15235 7.5625C9.08985 6.625 10.0273 6 11.2773 5.6875C12.2148 5.375 13.4648 5.0625 15.9648 4.75C18.7773 4.75 19.7148 4.75 26.5898 4.75ZM26.5898 0.0625C19.4023 0.0625 18.7773 0.0625 15.9648 0.0625C13.1523 0.0625 11.2773 0.687502 9.71485 1.3125C8.15235 1.9375 6.58985 2.875 5.02735 4.4375C3.46485 6 2.83985 7.25 1.90235 9.125C1.27735 10.6875 0.964844 12.5625 0.652344 15.375C0.652344 18.1875 0.652344 19.125 0.652344 26C0.652344 33.1875 0.652344 33.8125 0.652344 36.625C0.652344 39.4375 1.27735 41.3125 1.90235 42.875C2.52735 44.4375 3.46485 46 5.02735 47.5625C6.58985 49.125 7.83985 49.75 9.71485 50.6875C11.2773 51.3125 13.1523 51.625 15.9648 51.9375C18.7773 51.9375 19.7148 51.9375 26.5898 51.9375C33.4648 51.9375 34.4023 51.9375 37.2148 51.9375C40.0273 51.9375 41.9023 51.3125 43.4648 50.6875C45.0273 50.0625 46.5898 49.125 48.1523 47.5625C49.7148 46 50.3398 44.75 51.2773 42.875C51.9023 41.3125 52.2148 39.4375 52.5273 36.625C52.5273 33.8125 52.5273 32.875 52.5273 26C52.5273 19.125 52.5273 18.1875 52.5273 15.375C52.5273 12.5625 51.9023 10.6875 51.2773 9.125C50.6523 7.5625 49.7148 6 48.1523 4.4375C46.5898 2.875 45.3398 2.25 43.4648 1.3125C41.9023 0.687502 40.0273 0.375 37.2148 0.0625C34.4023 0.0625 33.7773 0.0625 26.5898 0.0625Z" fill="#F00073"/>
<path d="M26.5898 12.5625C19.0898 12.5625 13.1523 18.5 13.1523 26C13.1523 33.5 19.0898 39.4375 26.5898 39.4375C34.0898 39.4375 40.0273 33.5 40.0273 26C40.0273 18.5 34.0898 12.5625 26.5898 12.5625ZM26.5898 34.75C21.9023 34.75 17.8398 31 17.8398 26C17.8398 21.3125 21.5898 17.25 26.5898 17.25C31.2773 17.25 35.3398 21 35.3398 26C35.3398 30.6875 31.2773 34.75 26.5898 34.75Z" fill="#F00073"/>
<path d="M40.3398 15.375C42.0657 15.375 43.4648 13.9759 43.4648 12.25C43.4648 10.5241 42.0657 9.125 40.3398 9.125C38.614 9.125 37.2148 10.5241 37.2148 12.25C37.2148 13.9759 38.614 15.375 40.3398 15.375Z" fill="#F00073"/>
</svg>
