<svg width="51" height="50" viewBox="0 0 51 50" fill="none" xmlns="http://www.w3.org/2000/svg">
<path d="M11.6861 50H1.06103V16.5625H11.6861V50ZM6.37354 11.875C2.93604 11.875 0.436035 9.375 0.436035 5.9375C0.436035 2.5 3.24854 0 6.37354 0C9.81104 0 12.311 2.5 12.311 5.9375C12.311 9.375 9.81104 11.875 6.37354 11.875ZM50.436 50H39.8111V31.875C39.8111 26.5625 37.6235 25 34.4985 25C31.3735 25 28.2485 27.5 28.2485 32.1875V50H17.6235V16.5625H27.6235V21.25C28.561 19.0625 32.311 15.625 37.6235 15.625C43.561 15.625 49.811 19.0625 49.811 29.375V50H50.436Z" fill="#2867B2"/>
</svg>
