<svg width="51" height="42" viewBox="0 0 51 42" fill="none" xmlns="http://www.w3.org/2000/svg">
<path d="M3.67137 18.0884C17.0931 12.2408 26.043 8.38566 30.5212 6.52305C43.3071 1.20494 45.9639 0.281126 47.6956 0.250296C48.0764 0.243912 48.928 0.338301 49.4797 0.785903C49.9454 1.16385 50.0736 1.6744 50.1349 2.03274C50.1962 2.39107 50.2726 3.20737 50.2119 3.8452C49.519 11.1253 46.521 28.7922 44.9957 36.946C44.3503 40.3962 43.0796 41.553 41.8493 41.6662C39.1756 41.9123 37.1454 39.8993 34.5558 38.2018C30.5036 35.5455 28.2144 33.892 24.2811 31.3C19.7355 28.3045 22.6822 26.6581 25.2728 23.9675C25.9507 23.2633 37.7309 12.5483 37.9589 11.5763C37.9874 11.4547 38.0139 11.0016 37.7447 10.7623C37.4755 10.523 37.0782 10.6049 36.7914 10.6699C36.385 10.7622 29.9116 15.0408 17.3713 23.5059C15.5338 24.7677 13.8695 25.3824 12.3784 25.3502C10.7345 25.3147 7.57232 24.4207 5.22157 23.6566C2.33828 22.7194 0.0466985 22.2238 0.246244 20.6321C0.350179 19.803 1.49189 18.9551 3.67137 18.0884Z" fill="#0088CC"/>
</svg>
