<svg width="45" height="50" viewBox="0 0 45 50" fill="none" xmlns="http://www.w3.org/2000/svg">
<path d="M17.5896 19.6884V17.7419C16.9228 17.6529 16.2448 17.5972 15.5446 17.5972C7.19794 17.5862 0.407227 24.3825 0.407227 32.7474C0.407227 37.8753 2.96347 42.4137 6.87564 45.1612C4.35273 42.4583 2.80787 38.8208 2.80787 34.8386C2.80787 26.5961 9.40965 19.8775 17.5896 19.6884Z" fill="#25F4EE"/>
<path d="M17.9565 41.7575C21.6797 41.7575 24.7249 38.7876 24.8584 35.0946L24.8695 2.09122H30.8933C30.771 1.41268 30.7044 0.711908 30.7044 0H22.4799L22.4688 33.0034C22.3355 36.6964 19.2901 39.6662 15.567 39.6662C14.4111 39.6662 13.3219 39.3771 12.355 38.8654C13.5998 40.6117 15.6448 41.7575 17.9565 41.7575Z" fill="#25F4EE"/>
<path d="M42.152 13.2926V11.4573C39.8515 11.4573 37.7175 10.7788 35.917 9.59961C37.5174 11.4351 39.6846 12.7699 42.152 13.2926Z" fill="#25F4EE"/>
<path d="M35.9169 9.59959C34.1608 7.5863 33.105 4.96116 33.105 2.09131H30.9045C31.4712 5.22813 33.3385 7.92004 35.9169 9.59959Z" fill="#FE2C55"/>
<path d="M15.5558 25.8174C11.7436 25.8174 8.64282 28.9209 8.64282 32.7363C8.64282 35.3949 10.1543 37.7084 12.3549 38.8653C11.5325 37.7307 11.0435 36.3403 11.0435 34.8275C11.0435 31.0122 14.1443 27.9087 17.9565 27.9087C18.6678 27.9087 19.3568 28.031 20.0014 28.2312V19.822C19.3345 19.7329 18.6566 19.6772 17.9565 19.6772C17.8342 19.6772 17.723 19.6884 17.6008 19.6884V26.14C16.945 25.9398 16.2671 25.8174 15.5558 25.8174Z" fill="#FE2C55"/>
<path d="M42.1517 13.2925V19.6884C37.8839 19.6884 33.9273 18.3203 30.7041 16.0066V32.7474C30.7041 41.1012 23.9135 47.9088 15.5556 47.9088C12.3325 47.9088 9.3317 46.8854 6.87549 45.1613C9.64289 48.1312 13.5884 50 17.9563 50C26.3029 50 33.1048 43.2035 33.1048 34.8387V18.0978C36.3278 20.4116 40.2844 21.7797 44.5523 21.7797V13.5484C43.7187 13.5484 42.9185 13.4593 42.1517 13.2925Z" fill="#FE2C55"/>
<path d="M30.7039 32.7475V16.0067C33.9271 18.3204 37.8837 19.6885 42.1516 19.6885V13.2926C39.6842 12.7699 37.517 11.435 35.9166 9.59959C33.338 7.92004 31.482 5.22813 30.8929 2.09131H24.8691L24.858 35.0945C24.7247 38.7875 21.6793 41.7576 17.9562 41.7576C15.6444 41.7576 13.6105 40.6118 12.3435 38.8766C10.1429 37.7086 8.6314 35.4061 8.6314 32.7475C8.6314 28.9322 11.7322 25.8287 15.5444 25.8287C16.2557 25.8287 16.9447 25.951 17.5894 26.1513V19.6997C9.4094 19.8777 2.80762 26.5962 2.80762 34.8388C2.80762 38.8209 4.35248 42.4473 6.87537 45.1614C9.33159 46.8855 12.3324 47.9089 15.5555 47.9089C23.9022 47.9089 30.7039 41.1013 30.7039 32.7475Z" fill="black"/>
</svg>
