<svg width="51" height="42" viewBox="0 0 51 42" fill="none" xmlns="http://www.w3.org/2000/svg">
<path d="M50.5129 5.375C48.6379 6.3125 46.7629 6.625 44.5754 6.9375C46.7629 5.6875 48.3254 3.8125 48.9504 1.3125C47.0754 2.5625 44.8879 3.1875 42.3879 3.8125C40.5129 1.9375 37.7004 0.6875 34.8879 0.6875C28.3254 0.6875 23.3254 6.9375 24.8879 13.1875C16.4504 12.875 8.95044 8.8125 3.63794 2.5625C0.82544 7.25 2.38794 13.1875 6.76294 16.3125C5.20044 16.3125 3.63794 15.6875 2.07544 15.0625C2.07544 19.75 5.51294 24.125 10.2004 25.375C8.63794 25.6875 7.07544 26 5.51294 25.6875C6.76294 29.75 10.5129 32.875 15.2004 32.875C11.4504 35.6875 5.82544 37.25 0.512939 36.625C5.20044 39.4375 10.5129 41.3125 16.1379 41.3125C35.2004 41.3125 45.8254 25.375 45.2004 10.6875C47.3879 9.4375 49.2629 7.5625 50.5129 5.375Z" fill="#1DA1F2"/>
</svg>
