<svg width="51" height="36" viewBox="0 0 51 36" fill="none" xmlns="http://www.w3.org/2000/svg">
<path d="M49.1091 5.8125C48.4841 3.625 46.9217 2.0625 44.7342 1.4375C40.9842 0.500001 25.0466 0.5 25.0466 0.5C25.0466 0.5 9.42165 0.500001 5.35915 1.4375C3.17165 2.0625 1.60912 3.625 0.984121 5.8125C0.359121 9.875 0.359131 18 0.359131 18C0.359131 18 0.35914 26.125 1.29664 30.1875C1.92164 32.375 3.48412 33.9375 5.67162 34.5625C9.42162 35.5 25.3591 35.5 25.3591 35.5C25.3591 35.5 40.9841 35.5 45.0466 34.5625C47.2341 33.9375 48.7967 32.375 49.4217 30.1875C50.3592 26.125 50.3591 18 50.3591 18C50.3591 18 50.3591 9.875 49.1091 5.8125ZM20.3591 25.5V10.5L33.4841 18L20.3591 25.5Z" fill="#FF0000"/>
</svg>
