<?xml version="1.0" encoding="UTF-8"?>
<svg id="Layer_1" xmlns="http://www.w3.org/2000/svg" version="1.1" xmlns:xlink="http://www.w3.org/1999/xlink" viewBox="0 0 1035.87 271.03">
  <!-- Generator: Adobe Illustrator 29.8.2, SVG Export Plug-In . SVG Version: 2.1.1 Build 3)  -->
  <defs>
    <style>
      .st0 {
        fill: url(#linear-gradient2);
      }

      .st1 {
        fill: url(#linear-gradient10);
      }

      .st2 {
        fill: url(#linear-gradient1);
      }

      .st3 {
        fill: url(#linear-gradient9);
      }

      .st4 {
        fill: url(#linear-gradient8);
      }

      .st5 {
        fill: url(#linear-gradient11);
      }

      .st6 {
        fill: url(#linear-gradient16);
      }

      .st7 {
        fill: url(#linear-gradient12);
      }

      .st8, .st9, .st10 {
        fill: #176982;
      }

      .st11 {
        fill: url(#linear-gradient7);
      }

      .st12 {
        fill: url(#linear-gradient4);
      }

      .st13 {
        fill: url(#linear-gradient14);
      }

      .st14 {
        fill: url(#linear-gradient5);
      }

      .st15 {
        fill: url(#linear-gradient3);
      }

      .st16 {
        fill: url(#linear-gradient15);
      }

      .st17 {
        fill: url(#linear-gradient6);
      }

      .st18 {
        fill: url(#linear-gradient13);
      }

      .st9 {
        font-family: ChandrabatiMJ-Bold, ChandrabatiMJ;
        font-size: 57.33px;
        font-weight: 700;
      }

      .st19 {
        fill: url(#linear-gradient);
      }

      .st10 {
        font-family: BaskOldFace, 'Baskerville Old Face';
        font-size: 95.55px;
      }
    </style>
    <linearGradient id="linear-gradient" x1="198.72" y1="256.89" x2="198.72" y2="17.53" gradientUnits="userSpaceOnUse">
      <stop offset="0" stop-color="#176982"/>
      <stop offset="1" stop-color="#a4ddf0"/>
    </linearGradient>
    <linearGradient id="linear-gradient1" x1="114.67" y1="256.89" x2="114.67" y2="17.53" xlink:href="#linear-gradient"/>
    <linearGradient id="linear-gradient2" x1="282.73" y1="256.89" x2="282.73" y2="17.53" xlink:href="#linear-gradient"/>
    <linearGradient id="linear-gradient3" x1="197.6" y1="256.89" x2="197.6" y2="17.53" xlink:href="#linear-gradient"/>
    <linearGradient id="linear-gradient4" x1="198.72" y1="256.89" x2="198.72" y2="17.53" xlink:href="#linear-gradient"/>
    <linearGradient id="linear-gradient5" x1="198.72" y1="256.89" x2="198.72" y2="17.51" xlink:href="#linear-gradient"/>
    <linearGradient id="linear-gradient6" x1="246.67" y1="256.89" x2="246.67" y2="17.53" xlink:href="#linear-gradient"/>
    <linearGradient id="linear-gradient7" x1="151.75" y1="256.89" x2="151.75" y2="17.53" xlink:href="#linear-gradient"/>
    <linearGradient id="linear-gradient8" x1="198.73" y1="256.89" x2="198.73" y2="17.53" xlink:href="#linear-gradient"/>
    <linearGradient id="linear-gradient9" x1="310.55" y1="256.89" x2="310.55" y2="17.53" xlink:href="#linear-gradient"/>
    <linearGradient id="linear-gradient10" x1="298.64" y1="256.89" x2="298.64" y2="17.53" xlink:href="#linear-gradient"/>
    <linearGradient id="linear-gradient11" x1="87.61" y1="256.89" x2="87.61" y2="17.53" xlink:href="#linear-gradient"/>
    <linearGradient id="linear-gradient12" x1="99.53" y1="256.89" x2="99.53" y2="17.53" xlink:href="#linear-gradient"/>
    <linearGradient id="linear-gradient13" x1="140.49" y1="256.89" x2="140.49" y2="17.53" xlink:href="#linear-gradient"/>
    <linearGradient id="linear-gradient14" x1="155.24" y1="256.89" x2="155.24" y2="17.53" xlink:href="#linear-gradient"/>
    <linearGradient id="linear-gradient15" x1="240.74" y1="169.45" x2="240.74" y2="80.85" xlink:href="#linear-gradient"/>
    <linearGradient id="linear-gradient16" x1="255.35" y1="169.45" x2="255.35" y2="80.85" xlink:href="#linear-gradient"/>
  </defs>
  <g>
    <path class="st19" d="M300.93,68.49c-1.9-.3-3.96-1.81-5.61-2.7-3.84-2.07-7.62-4.23-11.41-6.4-9.73-5.59-19.4-11.3-29.05-17.03-6.35-3.77-12.46-8-19.14-11.2-5.13-2.45-10.69-3.48-16.31-4.3-11.77-1.72-23.92-2.08-35.74-.69-6.18.73-12.53,1.92-18.18,4.62-17.55,8.38-69.02,37.7-69.02,37.7-7.18,129.86,102.03,178.33,102.03,178.33,114.6-57.45,102.43-178.33,102.43-178.33ZM198.51,242.63s-102.87-47.9-96.1-170.21c0,0,48.47-27.62,65.01-35.51,9.7-4.63,21.46-5.19,32.02-5.1,5.84.05,11.69.44,17.49,1.22,4.93.67,10.46,1.36,15.03,3.39,5.55,2.47,10.57,5.98,15.78,9.08,4.55,2.71,9.11,5.42,13.68,8.11,8.69,5.12,17.37,10.25,26.2,15.12,2.14,1.18,4.9,3.29,7.38,3.69,0,0,11.46,116.1-96.48,170.21Z"/>
    <path class="st8" d="M141.37,62.11c1.83-1.84,3.84-3.49,5.9-5.07,2.06-1.59,4.22-3.05,6.42-4.45,4.42-2.78,9.08-5.2,13.92-7.22,9.69-4.04,20.15-6.43,30.75-6.84,5.3-.17,10.61.21,15.84,1.03l3.9.73c1.29.27,2.57.64,3.85.96l1.92.5,1.88.62c1.25.43,2.51.82,3.74,1.28,9.83,3.8,20.32,11.24,28.03,18.15-8.93-5.23-19.63-11.5-29.28-14.43-4.86-1.34-9.74-2.54-14.72-3.13l-.93-.14-.93-.09-1.87-.18-1.87-.18c-.62-.05-1.25-.05-1.87-.08-1.25-.03-2.5-.14-3.75-.13l-3.75.05c-10,.38-19.95,2.29-29.54,5.51-4.8,1.6-9.51,3.53-14.12,5.7-2.32,1.06-4.59,2.25-6.84,3.47-2.25,1.23-4.48,2.51-6.65,3.92Z"/>
    <path class="st2" d="M120.48,69.54l-5.81,7.7s-2.04,56.18,7.83,72.63c0,0-13.31-22.52-15.66-49.12v-25.98l13.64-5.24Z"/>
    <path class="st0" d="M276.92,69.54l5.81,7.7s2.04,56.18-7.83,72.63c0,0,13.31-22.52,15.66-49.12v-25.98s-13.64-5.24-13.64-5.24Z"/>
    <polygon class="st15" points="226.18 213.31 198.72 236.12 169.03 213.31 198.72 228.79 226.18 213.31"/>
    <path class="st12" d="M234.11,193.43h-10.17c-.92,0-1.66-.74-1.66-1.66v-.73h-.33c-.92,0-1.66-.74-1.66-1.66v-7.18c0-.92.74-1.66,1.66-1.66h2.58v-3.26h-10.29c-.47,2.12-1.43,4.59-3.34,6.7-2.78,3.07-6.87,4.64-12.16,4.67-5.3-.03-9.39-1.6-12.17-4.67-1.91-2.11-2.87-4.58-3.34-6.7h-10.29v3.26h2.58c.92,0,1.66.74,1.66,1.66v7.18c0,.92-.74,1.66-1.66,1.66h-.33v.73c0,.92-.74,1.66-1.66,1.66h-10.17c-.92,0-1.66-.74-1.66-1.66v-1.73h-.53c-.92,0-1.66-.74-1.66-1.66v-6.33c0-.92.74-1.66,1.66-1.66h3.52v-3.56h-6.1v.88c0,.53-.25,1.02-.67,1.33-3.1,2.3-6.19,3.02-9.19,2.15-5.08-1.47-8.22-7.2-9.35-9.6h-2.93v.88c0,.41-.15.8-.42,1.1l-4.64,5.24c-.32.36-.77.56-1.24.56h-7.58c-.92,0-1.66-.74-1.66-1.66v-8.81h-9.54v4.72c0,.92-.74,1.66-1.66,1.66h-1.13v1.53c0,.92-.74,1.66-1.66,1.66h-3.59c-.92,0-1.66-.74-1.66-1.66v-1.53h-.73c-.92,0-1.66-.74-1.66-1.66v-8.51h-48.8c-.3,0-.6-.08-.86-.24-12.32-7.42-11.03-14.39-9.91-17.04,1.17-2.76,3.67-4.69,5.48-4.21.89.24,1.72,1.09,1.56,2.46-.17,1.43,2.27,3.46,4.16,4.53h94.86v-.73c0-.92.74-1.66,1.66-1.66h32.84l-2.15-23.77c-.01-.17,0-.33.03-.5,3.18-14.92,19.56-18.91,20.25-19.08.25-.06.51-.06.76,0,.7.16,17.08,4.15,20.26,19.08.03.16.04.33.03.5l-2.15,23.77h32.84c.92,0,1.66.74,1.66,1.66v.73h94.86c1.89-1.07,4.32-3.09,4.16-4.53h0c-.16-1.37.67-2.23,1.56-2.46,1.81-.48,4.31,1.45,5.48,4.21,1.12,2.65,2.41,9.62-9.91,17.04-.26.16-.56.24-.86.24h-48.8v8.51c0,.92-.74,1.66-1.66,1.66h-.73v1.53c0,.92-.74,1.66-1.66,1.66h-3.59c-.92,0-1.66-.74-1.66-1.66v-1.53h-1.13c-.92,0-1.66-.74-1.66-1.66v-4.72h-9.54v8.81c0,.92-.74,1.66-1.66,1.66h-7.58c-.48,0-.93-.2-1.24-.56l-4.64-5.24c-.27-.3-.42-.7-.42-1.1v-.88h-2.93c-1.12,2.41-4.26,8.13-9.35,9.6-3,.87-6.1.15-9.19-2.15-.42-.31-.67-.81-.67-1.33v-.88h-6.1v3.56h3.52c.92,0,1.66.74,1.66,1.66v6.33c0,.92-.74,1.66-1.66,1.66h-.53v1.73c0,.92-.74,1.66-1.66,1.66ZM225.6,190.1h6.85v-1.73c0-.92.74-1.66,1.66-1.66h.53v-3.01h-3.52c-.92,0-1.66-.74-1.66-1.66v-6.88c0-.92.74-1.66,1.66-1.66h9.43c.92,0,1.66.74,1.66,1.66v1.68c1.99,1.3,3.83,1.68,5.61,1.16,4.76-1.37,7.61-8.6,7.64-8.67.25-.64.86-1.06,1.55-1.06h5.68c.92,0,1.66.74,1.66,1.66v1.91l3.72,4.2h5.17v-8.81c0-.92.74-1.66,1.66-1.66h12.87c.92,0,1.66.74,1.66,1.66v4.72h1.13c.92,0,1.66.74,1.66,1.66v1.53h.27v-1.53c0-.92.74-1.66,1.66-1.66h.73v-8.51c0-.92.74-1.66,1.66-1.66h50c6.01-3.71,9.04-7.71,8.55-11.28-.17-1.25-.72-2.18-1.25-2.79-1.08,3.37-5.48,5.74-6.07,6.04-.24.12-.5.19-.76.19h-96.94c-.92,0-1.66-.74-1.66-1.66v-.73h-33c-.47,0-.91-.2-1.23-.54-.31-.34-.47-.81-.43-1.27l2.3-25.33c-2.61-11.49-14.99-15.53-17.33-16.19-2.33.66-14.72,4.69-17.33,16.19l2.3,25.33c.04.47-.11.93-.43,1.27-.31.34-.76.54-1.23.54h-33v.73c0,.92-.74,1.66-1.66,1.66H50.43c-.27,0-.53-.06-.76-.19-.59-.3-4.99-2.67-6.07-6.04-.53.61-1.08,1.54-1.25,2.79-.49,3.58,2.54,7.58,8.55,11.28h50c.92,0,1.66.74,1.66,1.66v8.51h.73c.92,0,1.66.74,1.66,1.66v1.53h.27v-1.53c0-.92.74-1.66,1.66-1.66h1.13v-4.72c0-.92.74-1.66,1.66-1.66h12.87c.92,0,1.66.74,1.66,1.66v8.81h5.17l3.72-4.2v-1.91c0-.92.74-1.66,1.66-1.66h5.68c.69,0,1.3.42,1.55,1.07.03.07,2.88,7.3,7.64,8.67,1.78.51,3.62.13,5.61-1.16v-1.68c0-.92.74-1.66,1.66-1.66h9.42c.92,0,1.66.74,1.66,1.66v6.88c0,.92-.74,1.66-1.66,1.66h-3.52v3.01h.53c.92,0,1.66.74,1.66,1.66v1.73h6.85v-.73c0-.92.74-1.66,1.66-1.66h.33v-3.86h-2.58c-.92,0-1.66-.74-1.66-1.66v-6.58c0-.92.74-1.66,1.66-1.66h11l.63-2.03c.25-.81,1.08-1.3,1.92-1.13.83.17,1.41.94,1.33,1.79,0,.05-.45,5.5,2.91,9.19,2.13,2.34,5.39,3.53,9.69,3.56,4.3-.02,7.56-1.22,9.69-3.58,3.37-3.72,2.9-9.11,2.89-9.17-.08-.85.49-1.62,1.33-1.79.83-.17,1.66.32,1.92,1.13l.63,2.03h11c.92,0,1.66.74,1.66,1.66v6.58c0,.92-.74,1.66-1.66,1.66h-2.58v3.86h.33c.92,0,1.66.74,1.66,1.66v.73Z"/>
    <polygon class="st14" points="198.72 192.7 201.42 201.01 210.16 201.01 203.09 206.15 205.79 214.46 198.72 209.33 191.65 214.46 194.35 206.15 187.28 201.01 196.02 201.01 198.72 192.7"/>
    <path class="st17" d="M246.67,175.28c-6.2,0-11.24-5.04-11.24-11.24s5.04-11.24,11.24-11.24,11.24,5.04,11.24,11.24-5.04,11.24-11.24,11.24ZM246.67,156.13c-4.36,0-7.91,3.55-7.91,7.91s3.55,7.91,7.91,7.91,7.91-3.55,7.91-7.91-3.55-7.91-7.91-7.91Z"/>
    <path class="st11" d="M151.75,175.28c-6.2,0-11.24-5.04-11.24-11.24s5.04-11.24,11.24-11.24,11.24,5.04,11.24,11.24-5.04,11.24-11.24,11.24ZM151.75,156.13c-4.36,0-7.91,3.55-7.91,7.91s3.55,7.91,7.91,7.91,7.91-3.55,7.91-7.91-3.55-7.91-7.91-7.91Z"/>
    <path class="st4" d="M198.99,110.83s-24.12,5.93-13.55,35.31c0,0,.6-12.42,1.4-14.41.8-1.99,12.87-8.28,23.64.2,0,0,3.59,7.58,1.65,14.21,0,0,11.22-24.78-13.13-35.31ZM189.53,124.74c9.28-16.06,19.15,0,19.15,0-12.77-3.89-19.15,0-19.15,0Z"/>
    <polygon class="st3" points="340.33 164.04 280.78 219.29 332.85 164.04 340.33 164.04"/>
    <polygon class="st1" points="318.18 164.04 279.09 198.84 310.7 164.04 318.18 164.04"/>
    <polygon class="st5" points="57.84 164.04 117.38 219.29 65.32 164.04 57.84 164.04"/>
    <polygon class="st7" points="79.98 164.04 119.07 198.84 87.46 164.04 79.98 164.04"/>
    <g>
      <path class="st8" d="M172.63,61.2l6.3,8.01-5.87,3.96c1.67,1.01,3.01,2.2,4.02,3.57,1.01,1.37,1.79,3.14,2.35,5.3.26,1.05.52,1.81.79,2.3.18.32.53.69,1.03,1.12l1.82-1.54.63.66-4.43,3.76c-.89-.56-1.53-1.16-1.92-1.79-.28-.43-.79-1.87-1.54-4.33-.4-1.3-.91-2.42-1.54-3.34-.62-.93-1.28-1.62-1.97-2.09-.69-.47-1.63-.9-2.82-1.28l-1.22.82v7.59c1.11.37,2.28.88,3.51,1.56l1.89-1.67.59.64-4.75,3.9c-1.73-.88-3.23-1.49-4.5-1.84-1.27-.35-2.55-.53-3.84-.53-1.62,0-3.18.27-4.67.8-.79.29-1.67.82-2.65,1.57l-.5-.44c1.21-1.55,2.42-2.68,3.65-3.42s2.73-1.22,4.51-1.48v-.82c0-1.18-.15-2.15-.46-2.89-.31-.75-.86-1.53-1.67-2.36-.81-.82-1.65-1.49-2.54-2.02-.57-.33-1.38-.66-2.42-.99v-.75c.99-.37,2.2-1.03,3.64-2.01l3.44-2.3c0-1.57-.11-2.69-.33-3.37-.22-.68-.65-1.24-1.28-1.69s-1.34-.68-2.12-.68c-.48,0-.91.07-1.3.22-.39.15-.87.42-1.45.82l-.6-.44c.95-.97,1.81-1.63,2.57-1.98.76-.35,1.7-.52,2.82-.52,1.25,0,2.3.25,3.13.75.83.5,1.46,1.18,1.87,2.05.24.52.38,1.28.42,2.26l7.41-5.1ZM161.5,69.89l-4.07,2.74c.77.37,1.41.73,1.92,1.1s1.23.97,2.16,1.83v-5.66ZM167.41,65.8l-2.19,1.51v15.82c.73.11,1.46.28,2.19.5v-17.83ZM170.18,63.9l-1.93,1.33v10.09l7.15-4.77-5.22-6.65Z"/>
      <path class="st8" d="M208.77,60.67c1.26.34,2.22.84,2.86,1.5.91.92,1.37,1.99,1.37,3.19,0,.99-.36,2.01-1.07,3.06-.71,1.05-2.02,2.3-3.93,3.75,1.63.15,2.83.41,3.59.8.76.39,1.29.89,1.6,1.5s.46,1.63.46,3.05v6.28c-4.33.49-8.02,2-11.08,4.53-1.06-.73-2.07-1.25-3.02-1.55-1.54-.51-3.18-.77-4.93-.77-2.16,0-3.89.44-5.19,1.31-.88.58-1.32,1.17-1.32,1.75,0,.22.12.54.37.98.25.43.37.78.37,1.03s-.09.46-.27.64-.38.27-.6.27c-.34,0-.65-.16-.92-.48-.27-.32-.41-.74-.41-1.25,0-.47.17-1.01.5-1.62.33-.6,1.06-1.47,2.17-2.6,1.11-1.13,1.83-1.96,2.14-2.48.31-.52.47-1.01.47-1.46,0-.54-.18-.98-.54-1.32-.36-.35-.81-.52-1.36-.52-.5,0-.9.14-1.22.42s-.53.74-.64,1.39h-.67c-.01-.24-.02-.41-.02-.52,0-1.02.34-1.86,1.03-2.51.69-.66,1.6-.98,2.75-.98.13,0,.34,0,.62.02-.01-1.19-.19-2.06-.53-2.59-.53-.86-1.35-1.3-2.44-1.3-.68,0-1.28.18-1.81.53-.28.18-.56.56-.84,1.13l-.7-.25c.12-1.17.57-2.09,1.36-2.79.78-.69,1.79-1.04,3-1.04.45,0,1.01.04,1.68.11.05-1.71.21-2.96.47-3.75.27-.78.72-1.5,1.35-2.15.63-.65,1.83-1.55,3.6-2.71-1.67.55-3.08.83-4.24.83-.74,0-1.72-.15-2.92-.44-.69-.16-1.19-.24-1.48-.24-.55,0-1.01.19-1.39.56-.38.37-.63,1.03-.75,1.98h-.69c.04-1.11.24-2.04.61-2.79.37-.75.94-1.36,1.71-1.81.77-.46,1.58-.69,2.43-.69.63,0,1.69.18,3.16.55s2.67.55,3.58.55c.67,0,1.32-.07,1.95-.22.63-.15,1.45-.44,2.48-.88l.37.81c-2.64,1.28-4.39,2.52-5.27,3.73-.87,1.21-1.31,2.82-1.31,4.83v7.51c0,1.64-.18,2.92-.55,3.84s-1.1,1.95-2.21,3.12c2.15-.91,3.6-1.89,4.35-2.94.74-1.05,1.11-2.59,1.11-4.62v-5.39c0-2.51.22-4.28.66-5.31.44-1.03,1.25-1.91,2.42-2.65,1.18-.74,3.74-1.72,7.7-2.94ZM205.61,62.44c-1.32.6-2.21,1.1-2.66,1.52-.46.41-.78.9-.95,1.47-.18.57-.27,1.52-.27,2.88v7.48c0,1.34-.12,2.35-.37,3.02-.24.68-.71,1.34-1.41,1.99-.69.65-2.1,1.6-4.22,2.84,1.14-.17,2.21-.26,3.2-.26,1.68,0,3.27.23,4.77.69v-15.21h.8v4.75c1.68-1.01,2.92-2.05,3.73-3.11s1.21-2.22,1.21-3.46c0-1.02-.31-1.9-.94-2.64-.62-.74-1.59-1.39-2.89-1.96ZM204.5,76.24c1,.35,1.9.53,2.7.53s1.7-.18,2.7-.53c0-.84-.19-1.52-.57-2.03s-1.09-.99-2.14-1.44c-1.33.88-2.23,1.44-2.7,1.7v1.77ZM209.91,77.05c-1.02.37-1.92.55-2.7.55-.84,0-1.74-.18-2.7-.55v3.25c.94-.34,1.81-.51,2.63-.51s1.72.17,2.78.51v-3.25ZM209.91,81.14c-1.12-.4-2.07-.6-2.85-.6s-1.67.2-2.56.6v3.25c.52.23,1.02.5,1.48.79,1.24-.65,2.55-1.16,3.92-1.53v-2.51Z"/>
      <path class="st8" d="M227.51,61.03l8.24,2.75.61-1.08c.22-.39.38-.63.47-.72.09-.09.2-.14.32-.14s.22.04.3.13.12.18.12.29c0,.17-.15.51-.45,1.02l-3.98,6.76,3.16-.21c.95-.04,2.06.1,3.31.4,1.26.3,2.34.78,3.25,1.42.91.64,1.62,1.39,2.14,2.26.52.87.78,1.83.78,2.88,0,1.92-.81,3.81-2.42,5.67-1.61,1.86-4.48,3.81-8.6,5.87-1.45-.54-3.14-1.1-5.06-1.69-3.43,1.57-6.24,2.35-8.45,2.35-1.57,0-2.78-.34-3.62-1.03-.85-.69-1.27-1.48-1.27-2.38,0-.96.51-1.84,1.53-2.64,1.02-.8,2.54-1.2,4.55-1.2.79,0,1.77.1,2.94.29l1.49-2.62-2.67.21c-.63.01-1.49-.08-2.56-.27-1.07-.19-1.95-.5-2.64-.92-.69-.43-1.2-.95-1.54-1.57s-.51-1.27-.51-1.95c0-1.08.38-2.05,1.15-2.89.49-.54,1.29-1.02,2.41-1.44l-.02-.22c0-1.13.5-2.43,1.51-3.9,1.01-1.47,2.84-3.28,5.51-5.43ZM228.43,86.21c-3.03-1.01-5.51-1.52-7.45-1.52-1,0-1.79.22-2.37.66-.4.29-.6.65-.6,1.08,0,.45.2.81.6,1.08.63.44,1.55.66,2.76.66,1.85,0,4.21-.65,7.06-1.95ZM230.26,73.44c-1.59.23-3.12.34-4.61.34-1.66,0-2.83-.19-3.52-.58-.69-.39-1.21-1-1.55-1.83-.88.56-1.31,1.25-1.31,2.08,0,.75.34,1.38,1.02,1.86.9.63,2.44.95,4.62.95,1.03,0,2.33-.09,3.91-.28l1.45-2.55ZM234.08,66.71c-1.91-.95-3.4-1.58-4.46-1.9-1.07-.32-2.01-.48-2.82-.48-1.14,0-2.07.32-2.79.97s-1.08,1.4-1.08,2.26.31,1.55.92,2.1c.61.55,1.54.82,2.78.82.82,0,2.65-.12,5.51-.36l1.93-3.4ZM226.21,82.19c1.15.25,2.09.49,2.81.7.72.21,2.01.64,3.87,1.29,2.95-1.34,4.42-2.64,4.42-3.9,0-.39-.17-.74-.52-1.06-.34-.32-.78-.48-1.31-.48-.65,0-1.45.06-2.41.17-2.66.28-4.4.42-5.23.42l-1.63,2.86ZM229.79,75.91c2.91-.29,4.92-.43,6.05-.43,1.55,0,2.73.35,3.54,1.05s1.22,1.54,1.22,2.51c0,.85-.4,1.68-1.2,2.49-.8.8-2.51,1.81-5.14,3.01l3.71.98c1.6-.99,2.83-2.05,3.69-3.2.87-1.14,1.3-2.41,1.3-3.78,0-.9-.27-1.79-.82-2.66s-1.38-1.56-2.5-2.08c-1.12-.52-2.42-.78-3.88-.78-1.18,0-2.7.11-4.54.34l-1.45,2.55Z"/>
    </g>
    <g>
      <path class="st18" d="M134.05,117.9l5.91-4.43,6.85,4.12c.04.55.06,1.01.06,1.38,0,1.55-.43,2.88-1.28,3.97-.85,1.1-2.76,2.48-5.72,4.16-1.33.76-2.27,1.37-2.82,1.82-.54.46-1.03,1.02-1.47,1.68,1.15-.51,2.16-.87,3.02-1.07.86-.2,1.7-.31,2.53-.31.71,0,1.44.05,2.18.16s1.31.21,1.7.32l2.2.73-2.47,2.7c-1.48-.52-2.49-.83-3.03-.93-.85-.18-1.66-.27-2.41-.27-1.44,0-3.01.33-4.7.99-.36.14-.57.22-.62.22s-.1-.02-.13-.06c-.04-.05-.06-.12-.06-.21,0-.46.16-1.01.47-1.67.42-.89,1.02-1.77,1.8-2.64.56-.62,1.47-1.45,2.73-2.47,1.26-1.02,2.13-1.8,2.61-2.33.67-.75,1.19-1.53,1.56-2.34.36-.81.55-1.68.55-2.6,0-1.37-.52-2.5-1.55-3.38l-5.89,4.51-2-2.05Z"/>
      <path class="st13" d="M155.08,113.46c2.15.74,3.82,1.92,5.02,3.54,1.19,1.62,1.79,3.53,1.79,5.73s-.55,4.12-1.66,5.89c-1.11,1.77-2.61,3.27-4.51,4.5-1.36-.32-2.59-.92-3.7-1.81-1.11-.89-1.95-2-2.54-3.32-.58-1.33-.88-2.7-.88-4.13,0-2.05.59-4.03,1.76-5.97,1.17-1.93,2.74-3.4,4.71-4.42ZM152.62,116.08c-1.31,1.49-1.97,3.28-1.97,5.37,0,1.48.32,2.87.95,4.18s1.54,2.39,2.72,3.24c1.18.85,2.38,1.37,3.62,1.55.69-.94,1.17-1.82,1.47-2.64.29-.82.44-1.73.44-2.72,0-1.36-.28-2.66-.83-3.9-.55-1.24-1.39-2.28-2.49-3.14s-2.41-1.5-3.89-1.94Z"/>
    </g>
    <g>
      <path class="st16" d="M234.35,117.94l5.86-4.4,6.79,4.08c.04.54.06,1,.06,1.37,0,1.54-.42,2.85-1.27,3.94-.85,1.09-2.74,2.46-5.68,4.12-1.32.75-2.25,1.35-2.79,1.81-.54.46-1.02,1.01-1.46,1.67,1.15-.51,2.14-.86,2.99-1.06.85-.2,1.69-.3,2.51-.3.7,0,1.42.05,2.16.16.74.11,1.3.21,1.68.32l2.18.72-2.45,2.68c-1.47-.51-2.47-.82-3-.93-.85-.18-1.64-.27-2.4-.27-1.43,0-2.98.33-4.66.98-.36.14-.56.21-.62.21s-.1-.02-.13-.06c-.04-.05-.06-.12-.06-.21,0-.45.16-1,.46-1.65.41-.89,1.01-1.76,1.79-2.61.55-.62,1.46-1.44,2.71-2.45,1.25-1.01,2.11-1.78,2.59-2.31.67-.74,1.18-1.52,1.54-2.32.36-.81.54-1.67.54-2.58,0-1.36-.51-2.48-1.53-3.35l-5.85,4.47-1.99-2.03Z"/>
      <path class="st6" d="M251.82,113.8h8.77l-1.07,2.71h-7.45l-1.07,6.65,5.97-4.01c1.57.69,2.76,1.59,3.56,2.7.8,1.12,1.21,2.34,1.21,3.66,0,1.69-.56,3.25-1.68,4.67-1.12,1.42-3.02,2.38-5.7,2.87l-5.37-3.23,2.02-2.19,6.44,3.75c.63-.53,1.07-1.03,1.32-1.51.39-.71.58-1.46.58-2.24,0-1.3-.4-2.46-1.19-3.49-.79-1.03-2.06-1.85-3.8-2.45l-4.23,2.82,1.7-10.71Z"/>
    </g>
  </g>
  <g>
    <text class="st10" transform="translate(371.76 130.46)"><tspan x="0" y="0">RBS TRAVELS</tspan></text>
    <text class="st9" transform="translate(459.28 191.69)"><tspan x="0" y="0">¯^‡cœi c‡_ Avgv‡`i mv‡_</tspan></text>
  </g>
</svg>